<?xml version="1.0" standalone="no"?>
<!DOCTYPE svg PUBLIC "-//W3C//DTD SVG 20010904//EN"
 "http://www.w3.org/TR/2001/REC-SVG-20010904/DTD/svg10.dtd">
<svg version="1.0" xmlns="http://www.w3.org/2000/svg"
 width="512.000000pt" height="512.000000pt" viewBox="0 0 512.000000 512.000000"
 preserveAspectRatio="xMidYMid meet">

<g transform="translate(0.000000,512.000000) scale(0.100000,-0.100000)"
fill="#000000" stroke="none">
<path d="M2320 5106 c-318 -42 -623 -154 -872 -320 -127 -84 -193 -138 -307
-249 -316 -311 -507 -677 -587 -1127 -13 -71 -18 -157 -18 -341 l-1 -245 -65
-100 c-120 -185 -215 -396 -275 -609 -27 -97 -28 -103 -17 -199 34 -284 189
-529 429 -680 26 -16 48 -40 57 -61 45 -107 169 -258 281 -342 102 -77 269
-151 380 -168 83 -14 75 18 75 -310 0 -290 0 -294 23 -320 14 -17 36 -28 63
-32 36 -5 46 -1 75 25 l34 30 3 340 3 339 54 -53 c88 -85 229 -144 346 -144
29 0 47 8 71 29 l33 29 3 241 3 241 63 -45 c124 -88 237 -125 386 -125 149 0
262 37 386 125 l63 45 3 -241 3 -241 33 -29 c24 -21 42 -29 71 -29 117 0 258
59 346 144 l54 53 3 -339 3 -340 34 -30 c29 -26 39 -30 75 -25 27 4 49 15 63
32 23 26 23 30 23 320 0 328 -8 296 75 310 112 17 278 91 382 169 34 26 90 77
124 114 60 66 159 214 159 239 0 7 28 31 63 54 243 165 385 394 419 675 11 96
10 102 -17 199 -60 213 -156 425 -277 612 l-63 97 0 246 c-1 266 -8 330 -66
548 -38 145 -95 289 -168 427 -64 120 -92 149 -147 149 -45 0 -94 -48 -94 -93
0 -16 29 -84 64 -152 36 -68 80 -165 100 -215 67 -177 115 -426 116 -597 l0
-78 -94 87 c-93 86 -94 88 -206 296 -62 115 -124 223 -138 240 -38 45 -115 78
-185 78 -127 0 -250 -20 -314 -51 -120 -58 -193 -174 -193 -306 0 -67 56 -295
88 -357 11 -23 -2 -15 -59 37 -135 124 -268 199 -445 253 -83 26 -101 28 -279
28 -164 0 -201 -3 -267 -21 -174 -49 -334 -138 -467 -259 -36 -33 -61 -50 -57
-39 5 11 26 81 47 155 46 160 50 239 18 325 -28 76 -102 155 -176 188 -60 26
-196 47 -310 47 -70 0 -147 -33 -185 -78 -14 -17 -76 -125 -138 -240 -112
-208 -113 -210 -206 -296 l-94 -87 0 78 c0 43 7 126 15 184 112 846 778 1496
1627 1588 353 39 697 -27 1036 -200 86 -43 166 -79 179 -79 12 0 37 13 55 29
27 24 33 36 33 71 0 37 -6 47 -37 74 -45 39 -202 122 -323 170 -122 49 -277
93 -415 117 -150 27 -434 34 -580 15z m-832 -1556 c92 -10 132 -31 158 -82 22
-42 15 -107 -26 -247 -38 -130 -70 -180 -143 -225 -42 -26 -59 -30 -159 -36
-109 -6 -111 -7 -139 -38 -16 -18 -29 -44 -29 -58 0 -31 24 -80 45 -92 14 -7
14 -18 -4 -98 -60 -275 -195 -464 -375 -524 -77 -25 -106 -55 -106 -109 0 -68
50 -101 154 -101 131 0 262 -56 384 -165 80 -71 93 -75 176 -50 27 8 55 15 63
15 11 0 13 -69 14 -377 0 -333 2 -386 19 -448 10 -38 17 -70 16 -71 0 0 -42 3
-92 7 -268 22 -489 178 -604 424 -36 77 -40 82 -106 119 -92 52 -219 180 -270
271 -43 78 -78 189 -89 281 -6 56 -3 74 38 196 96 287 226 511 430 739 41 46
108 113 150 148 73 62 80 72 173 245 169 313 150 286 197 286 23 0 79 -4 125
-10z m2438 -225 c108 -200 131 -235 177 -274 272 -231 487 -554 604 -911 39
-118 44 -142 38 -190 -11 -93 -34 -171 -78 -260 -52 -106 -175 -236 -281 -296
-66 -38 -70 -42 -106 -119 -115 -246 -336 -402 -604 -424 -50 -4 -92 -7 -92
-7 -1 1 6 33 16 71 17 62 19 115 19 453 1 305 4 382 14 382 7 0 39 -7 70 -15
90 -23 98 -21 182 50 123 105 243 155 371 155 104 0 154 33 154 101 0 54 -29
84 -106 109 -180 60 -315 249 -375 524 -18 80 -18 91 -4 98 21 12 45 61 45 92
0 14 -13 40 -29 58 -28 31 -30 32 -139 38 -100 6 -117 10 -159 36 -73 45 -105
95 -143 225 -55 188 -51 248 20 299 33 24 126 39 223 36 l59 -1 124 -230z
m-1154 -179 c325 -82 570 -345 633 -677 13 -74 15 -179 13 -795 l-3 -709 -24
-45 c-30 -57 -85 -116 -133 -141 -21 -10 -40 -19 -42 -19 -3 0 -7 354 -8 788
l-3 787 -34 70 c-63 128 -170 209 -311 235 -57 11 -79 9 -182 -11 l-118 -23
-121 24 c-117 23 -122 23 -197 7 -135 -30 -231 -106 -295 -236 l-32 -66 -3
-787 c-1 -434 -5 -788 -8 -788 -2 0 -21 9 -42 19 -48 25 -103 84 -133 141
l-24 45 -3 709 c-2 616 0 721 13 795 51 269 222 494 470 618 121 61 211 81
371 82 98 1 140 -4 216 -23z m-1162 -368 c-28 -57 -62 -148 -76 -203 -25 -92
-27 -122 -33 -364 l-6 -265 -55 -11 -55 -10 -59 47 c-33 26 -94 65 -137 87
l-77 39 25 24 c106 98 217 333 257 547 9 46 18 86 21 91 2 4 20 10 39 13 42 7
132 50 172 82 16 14 30 24 31 25 1 0 -20 -46 -47 -102z m1998 13 c29 -12 61
-21 72 -21 25 0 28 -5 46 -100 32 -170 87 -310 169 -435 29 -44 67 -93 83
-108 l30 -29 -76 -39 c-42 -22 -101 -59 -132 -83 l-55 -43 -61 10 -62 9 -4
262 c-5 242 -7 268 -31 361 -15 55 -48 143 -74 195 -26 52 -49 99 -51 103 -2
5 18 -7 44 -26 27 -20 73 -45 102 -56z m-1218 -358 c88 -22 246 -22 337 0 99
23 156 10 217 -50 49 -48 66 -97 66 -198 l0 -91 -67 -66 -68 -67 -103 45
c-185 81 -239 81 -424 0 l-103 -45 -67 67 -68 66 0 91 c0 77 4 99 25 142 28
55 83 100 137 113 47 11 47 11 118 -7z m325 -620 c128 -54 185 -60 254 -26
l43 21 -4 -182 -3 -182 -37 -75 c-50 -101 -120 -172 -217 -218 -74 -35 -80
-36 -191 -36 -112 0 -117 1 -190 36 -97 47 -169 118 -218 218 l-37 75 -3 182
-4 182 43 -21 c66 -32 127 -28 234 18 183 78 166 77 330 8z"/>
<path d="M3881 4536 c-87 -48 -50 -186 49 -186 51 0 100 49 100 99 0 75 -83
124 -149 87z"/>
</g>
</svg>
