<?xml version="1.0" standalone="no"?>
<!DOCTYPE svg PUBLIC "-//W3C//DTD SVG 20010904//EN"
 "http://www.w3.org/TR/2001/REC-SVG-20010904/DTD/svg10.dtd">
<svg version="1.0" xmlns="http://www.w3.org/2000/svg"
 width="512.000000pt" height="512.000000pt" viewBox="0 0 512.000000 512.000000"
 preserveAspectRatio="xMidYMid meet">

<g transform="translate(0.000000,512.000000) scale(0.100000,-0.100000)"
fill="#000000" stroke="none">
<path d="M2780 4905 l0 -215 -32 0 c-18 0 -51 -5 -73 -10 l-40 -9 -185 184
c-102 102 -190 185 -195 185 -13 0 -145 -132 -145 -145 0 -6 101 -111 225
-235 l224 -224 78 20 c59 14 112 19 216 19 l137 0 0 322 0 323 -105 0 -105 0
0 -215z"/>
<path d="M3310 4719 l0 -402 72 -76 73 -76 -104 -7 c-192 -13 -355 -56 -513
-136 -308 -157 -527 -414 -637 -749 l-40 -118 -41 87 c-142 302 -114 618 81
909 l37 56 -201 201 c-111 111 -207 202 -212 202 -6 0 -42 -32 -80 -70 l-70
-70 145 -145 145 -145 -35 -67 c-35 -65 -36 -66 -115 -98 -542 -217 -929 -657
-1036 -1178 -61 -301 -16 -761 114 -1157 152 -462 414 -882 753 -1210 235
-227 480 -378 718 -443 121 -33 298 -30 421 7 418 126 849 504 1158 1017 257
428 396 867 427 1349 20 316 -25 556 -152 810 -31 63 -56 115 -55 115 20 3 88
48 119 79 52 52 74 98 89 181 16 92 7 305 -16 368 -23 65 -102 148 -167 178
-50 22 -67 24 -268 27 l-215 4 -42 66 c-23 37 -65 92 -92 124 l-51 56 0 356 0
356 -105 0 -105 0 0 -401z m772 -779 c69 -20 78 -43 78 -206 l0 -144 -29 -32
-29 -33 -259 -6 c-277 -7 -317 -13 -463 -69 -105 -41 -218 -116 -313 -209
-166 -161 -268 -374 -284 -593 l-6 -88 105 0 105 0 7 68 c11 104 24 149 78
262 45 92 61 115 142 195 76 77 106 99 186 138 122 60 193 76 367 84 l141 6
47 -72 c102 -158 173 -344 196 -518 15 -110 6 -399 -16 -543 -44 -291 -153
-621 -287 -870 -224 -418 -537 -764 -861 -954 -293 -171 -495 -182 -769 -42
-534 273 -1017 943 -1183 1641 -78 329 -91 676 -34 899 90 351 333 660 678
859 47 27 100 55 116 62 l30 13 -3 -127 c-8 -264 65 -493 223 -703 l55 -73
-155 -155 -155 -155 75 -75 76 -75 170 172 c190 193 219 238 240 373 40 265
114 438 257 607 168 197 436 337 692 362 127 12 738 13 782 1z"/>
</g>
</svg>
