<?xml version="1.0" standalone="no"?>
<!DOCTYPE svg PUBLIC "-//W3C//DTD SVG 20010904//EN"
 "http://www.w3.org/TR/2001/REC-SVG-20010904/DTD/svg10.dtd">
<svg version="1.0" xmlns="http://www.w3.org/2000/svg"
 width="512.000000pt" height="512.000000pt" viewBox="0 0 512.000000 512.000000"
 preserveAspectRatio="xMidYMid meet">

<g transform="translate(0.000000,512.000000) scale(0.100000,-0.100000)"
fill="#000000" stroke="none">
<path d="M2500 5111 c-71 -23 -122 -66 -156 -131 -17 -31 -19 -64 -22 -271
l-3 -237 -46 44 c-73 71 -198 136 -316 165 -26 6 -83 9 -126 7 -102 -6 -159
-37 -200 -110 -57 -100 -50 -203 21 -283 51 -57 84 -74 166 -86 136 -19 162
-59 162 -244 l0 -127 -60 55 c-105 98 -278 166 -417 167 l-53 0 0 148 c0 126
-3 153 -21 192 -73 161 -268 197 -389 72 -60 -63 -70 -100 -70 -271 l0 -141
-77 0 c-43 0 -83 4 -89 8 -26 17 -34 56 -34 164 -1 168 -35 238 -137 285 -113
52 -243 13 -308 -91 -29 -48 -30 -54 -33 -188 -5 -166 3 -188 68 -188 30 0 43
6 59 26 18 23 21 41 21 140 0 106 1 114 26 143 34 41 89 43 125 5 22 -24 24
-35 30 -163 5 -127 7 -141 33 -185 15 -25 46 -59 68 -74 l41 -27 416 -6 c464
-6 467 -6 577 -77 103 -67 179 -171 210 -287 8 -27 14 -94 14 -147 l0 -97 -32
-17 c-18 -9 -58 -34 -89 -55 l-57 -38 -4 152 c-3 127 -7 160 -24 198 -31 67
-78 114 -146 149 l-61 30 -378 0 c-242 0 -397 4 -431 11 -66 14 -131 47 -187
93 -50 42 -88 46 -119 13 -48 -51 -15 -113 102 -186 28 -17 45 -31 39 -31 -21
0 -141 -121 -182 -184 -82 -125 -122 -310 -91 -420 37 -132 200 -204 330 -145
86 39 124 95 140 206 15 106 72 163 164 163 l51 -1 35 -61 c44 -77 125 -159
195 -199 l54 -30 -82 -82 c-124 -123 -180 -244 -197 -424 -8 -90 -21 -118 -74
-157 -25 -19 -45 -21 -254 -26 -210 -5 -230 -7 -269 -27 -150 -80 -173 -280
-45 -395 65 -59 90 -63 347 -63 259 1 307 9 431 71 194 97 343 324 344 524 0
68 16 113 52 146 69 65 66 75 70 -244 4 -256 7 -296 26 -367 31 -111 118 -282
202 -395 78 -103 226 -259 303 -318 l49 -37 -5 -52 c-7 -69 -36 -132 -87 -187
l-42 -45 -36 24 c-20 13 -60 30 -89 36 -196 44 -493 -164 -493 -345 0 -42 -3
-46 -64 -96 -110 -87 -176 -196 -196 -325 -13 -84 -7 -129 23 -150 29 -20 59
-19 89 5 20 16 26 31 32 84 12 120 56 199 149 272 l45 35 55 -16 55 -16 22
-82 c12 -45 25 -120 28 -166 4 -71 9 -89 28 -108 30 -30 69 -29 101 3 25 25
26 28 20 122 -4 54 -16 130 -27 169 -11 40 -20 75 -20 77 0 2 30 18 66 35 36
17 83 45 105 61 l38 31 38 -43 c101 -113 198 -188 335 -259 207 -106 467 -170
856 -210 108 -11 115 -11 140 8 19 14 28 31 30 55 5 54 -28 74 -131 83 -142
11 -348 44 -472 74 -325 80 -557 211 -671 381 -42 61 -33 93 39 149 89 68 152
161 177 262 l12 46 66 -19 c85 -23 223 -23 314 1 l67 17 6 -35 c12 -61 60
-154 109 -208 62 -68 154 -126 441 -273 132 -67 259 -135 281 -151 99 -68 174
-188 174 -279 0 -100 69 -154 128 -100 18 17 22 32 22 83 -1 126 -48 241 -136
331 -77 79 -115 102 -407 253 -289 150 -372 203 -415 266 -34 50 -40 66 -53
131 l-9 50 99 101 c55 56 105 113 110 128 13 32 -3 83 -29 97 -41 22 -62 10
-169 -94 -111 -108 -169 -145 -268 -171 -106 -28 -211 -15 -323 38 -51 25 -89
56 -179 147 -139 141 -264 295 -313 386 -20 38 -49 110 -64 159 -26 85 -27
104 -31 330 l-5 240 51 72 c58 82 130 144 211 182 78 36 182 36 260 0 74 -35
140 -96 190 -175 65 -103 114 -105 177 -9 72 109 152 174 253 202 147 40 318
-46 433 -220 l37 -55 0 -199 c0 -281 -12 -345 -91 -509 -33 -67 -38 -85 -30
-107 12 -31 39 -47 80 -47 36 0 57 26 107 135 68 147 76 198 81 507 6 300 6
301 57 253 36 -34 56 -84 56 -143 0 -70 34 -192 75 -270 98 -187 278 -307 499
-333 53 -6 174 -10 270 -7 169 3 174 4 232 33 71 37 110 88 125 166 21 105
-34 218 -129 265 -32 16 -70 20 -264 24 -209 5 -229 7 -254 26 -53 39 -65 65
-74 160 -11 117 -23 162 -73 259 -30 59 -62 101 -122 161 l-82 81 56 34 c74
44 159 131 196 202 l30 57 48 0 c92 0 167 -68 167 -153 0 -87 53 -172 132
-211 91 -46 196 -32 272 36 58 50 78 103 77 198 -2 165 -62 301 -192 432 l-86
87 51 34 c101 68 178 164 219 274 30 81 38 381 12 450 -51 133 -204 192 -333
127 -101 -50 -132 -120 -132 -295 0 -153 -4 -159 -120 -159 l-80 0 0 150 c0
168 -8 201 -63 258 -117 122 -311 96 -390 -52 -19 -36 -22 -60 -25 -198 l-4
-158 -51 0 c-139 -1 -312 -70 -417 -167 l-60 -55 0 119 c0 103 3 125 23 163
26 53 88 90 149 90 50 0 95 19 143 61 132 116 88 350 -77 405 -141 46 -370
-22 -519 -154 l-49 -44 0 209 c0 229 -8 277 -54 338 -54 71 -177 112 -256 86z
m109 -156 c16 -8 34 -28 40 -46 8 -22 11 -252 11 -755 l0 -724 -95 0 -95 0 2
746 3 746 28 24 c32 27 66 30 106 9z m-648 -431 c127 -37 224 -113 293 -227
60 -100 66 -152 66 -541 l0 -345 -42 -11 c-24 -6 -59 -15 -79 -20 -75 -21 -69
-53 -69 368 l0 379 -31 61 c-49 99 -128 152 -252 168 -99 13 -139 93 -78 155
25 25 37 29 83 29 30 0 79 -7 109 -16z m1388 -1 c31 -26 42 -73 26 -111 -16
-38 -35 -48 -105 -57 -119 -15 -223 -92 -260 -193 -19 -49 -20 -78 -20 -422 0
-269 -3 -370 -11 -370 -7 0 -28 4 -48 10 -20 5 -55 15 -79 20 l-43 11 3 382
c3 372 4 383 26 437 60 144 198 265 342 300 64 15 146 12 169 -7z m-2104 -135
c46 -21 55 -54 55 -198 l0 -130 -90 0 -90 0 0 136 c0 74 5 144 10 154 11 20
56 49 77 50 7 0 24 -5 38 -12z m2733 -24 c21 -23 22 -34 22 -165 l0 -139 -90
0 -90 0 0 138 c0 110 3 142 16 160 34 48 102 51 142 6z m676 -1 l28 -27 -4
-161 c-3 -149 -5 -164 -30 -217 -46 -98 -131 -175 -241 -217 -35 -13 -112 -16
-457 -21 l-415 -5 -53 -30 c-64 -35 -96 -71 -131 -145 -22 -49 -25 -72 -29
-197 -3 -79 -6 -143 -7 -143 -1 0 -33 20 -70 45 -38 25 -77 47 -87 51 -16 5
-18 17 -18 98 0 161 41 267 145 372 66 66 153 114 243 133 33 7 193 11 429 11
362 0 378 1 420 21 54 26 98 79 112 135 6 23 11 92 11 153 0 103 1 111 26 140
35 42 89 43 128 4z m-3684 -883 l0 -90 -33 0 c-93 0 -194 -57 -247 -140 -28
-43 -39 -82 -60 -207 0 -1 -10 -11 -22 -23 -32 -30 -92 -27 -125 6 -24 24 -25
30 -21 105 4 68 11 91 47 165 87 174 224 272 384 273 l77 1 0 -90z m330 24 c0
-88 16 -144 53 -189 46 -57 95 -75 205 -75 l92 0 0 -96 0 -97 -112 5 c-84 4
-128 11 -171 27 -80 31 -167 114 -209 199 -30 61 -33 76 -37 179 l-3 113 91 0
91 0 0 -66z m270 48 c39 -21 80 -89 80 -134 l0 -28 -84 0 c-105 0 -116 10
-116 112 l0 68 43 0 c23 0 58 -8 77 -18z m2100 -50 c0 -102 -10 -112 -116
-112 l-86 0 7 43 c14 88 67 135 153 136 l42 1 0 -68z m328 -49 c-4 -108 -6
-123 -35 -178 -79 -153 -209 -225 -405 -225 l-89 0 3 93 3 92 100 5 c112 6
143 18 193 74 39 44 52 91 52 184 l0 72 91 0 91 0 -4 -117z m374 83 c175 -89
297 -284 289 -464 -2 -37 -44 -72 -89 -72 -56 0 -83 33 -94 112 -21 157 -124
260 -274 275 l-54 6 0 89 0 90 83 -3 c66 -3 93 -10 139 -33z m-1637 -267 c222
-31 417 -112 524 -219 67 -67 102 -142 109 -232 l5 -71 -58 47 c-140 114 -310
160 -450 122 -83 -22 -152 -63 -228 -136 l-73 -69 -70 67 c-146 141 -321 183
-500 122 -66 -23 -109 -49 -181 -107 l-53 -43 0 55 c0 164 137 307 385 400 61
23 199 58 270 68 62 9 247 7 320 -4z m-1119 -385 c-3 -9 -6 -51 -6 -95 0 -69
-2 -79 -17 -79 -33 0 -120 -47 -158 -85 -56 -56 -84 -126 -94 -236 -11 -114
-38 -189 -96 -269 -80 -108 -196 -174 -339 -191 -48 -6 -161 -9 -251 -7 -146
3 -165 5 -185 23 -33 29 -42 62 -30 101 19 58 23 59 269 64 210 5 229 7 273
29 113 55 163 137 178 288 11 116 34 182 92 265 80 113 228 202 347 207 17 1
22 -3 17 -15z m2031 -16 c118 -44 238 -165 283 -286 12 -31 26 -100 31 -152 6
-52 19 -115 30 -140 26 -58 81 -115 144 -148 49 -26 56 -27 277 -32 219 -5
228 -6 250 -28 33 -33 31 -94 -5 -129 -27 -28 -28 -28 -191 -31 -222 -5 -317
8 -413 54 -158 76 -272 248 -273 414 -1 148 -90 272 -222 312 l-38 11 0 62 c0
35 -3 77 -6 95 l-7 32 44 -7 c24 -4 68 -16 96 -27z m-1709 -2101 c34 -27 -2
-97 -81 -157 -88 -65 -222 -101 -255 -68 -21 21 -13 63 18 107 37 50 138 118
189 127 20 3 41 7 46 9 16 4 69 -7 83 -18z"/>
</g>
</svg>
