<?xml version="1.0" standalone="no"?>
<!DOCTYPE svg PUBLIC "-//W3C//DTD SVG 20010904//EN"
 "http://www.w3.org/TR/2001/REC-SVG-20010904/DTD/svg10.dtd">
<svg version="1.0" xmlns="http://www.w3.org/2000/svg"
 width="512.000000pt" height="512.000000pt" viewBox="0 0 512.000000 512.000000"
 preserveAspectRatio="xMidYMid meet">

<g transform="translate(0.000000,512.000000) scale(0.100000,-0.100000)"
fill="#000000" stroke="none">
<path d="M2695 4894 c-228 -22 -464 -74 -640 -139 -865 -319 -1425 -1084
-1425 -1942 0 -131 11 -188 40 -203 12 -6 173 -10 434 -10 l415 0 3 -379 c3
-337 5 -381 20 -397 15 -18 9 -27 -118 -183 -112 -138 -134 -170 -134 -198 0
-20 8 -41 20 -53 19 -19 33 -20 445 -20 l425 0 0 -148 c0 -103 4 -153 13 -165
15 -20 1664 -837 1689 -837 11 0 30 11 43 25 l25 24 0 465 c0 304 -4 483 -11
518 -25 116 -49 149 -280 384 -230 232 -251 261 -264 359 -5 37 -3 62 9 90 39
92 87 114 250 115 65 0 137 -5 160 -12 33 -10 81 -51 257 -225 187 -185 220
-213 247 -213 21 0 37 8 51 26 21 26 21 33 21 814 0 781 0 788 -21 814 -38 48
-64 38 -221 -89 -100 -80 -145 -111 -151 -102 -4 6 -29 49 -55 94 -26 46 -70
112 -99 147 l-52 65 350 345 c301 297 349 348 349 374 0 36 -60 95 -200 198
-317 234 -679 384 -1060 440 -100 14 -451 26 -535 18z m535 -159 c371 -58 750
-223 1028 -448 l63 -51 -113 -113 c-62 -62 -116 -113 -120 -113 -5 0 -34 21
-66 47 -309 252 -716 393 -1137 393 -296 0 -543 -56 -805 -181 -428 -205 -737
-549 -880 -978 -49 -144 -69 -259 -77 -423 l-6 -128 -174 0 -173 0 0 103 c1
597 332 1184 870 1542 323 215 642 326 1065 369 86 9 425 -4 525 -19z m-99
-441 c285 -39 598 -175 811 -352 l47 -39 -44 -43 -44 -43 -53 40 c-541 414
-1283 441 -1843 68 -164 -109 -306 -252 -407 -410 -134 -207 -208 -451 -208
-682 l0 -93 -65 0 -65 0 0 78 c0 249 84 537 218 746 249 390 679 661 1156 731
127 18 363 18 497 -1z m99 -291 c194 -51 352 -125 503 -236 l68 -50 -51 -52
-52 -53 -57 43 c-216 163 -470 248 -751 249 -163 0 -251 -12 -390 -56 -461
-146 -786 -537 -829 -999 -5 -49 -10 -91 -12 -93 -2 -2 -32 -6 -66 -9 l-63 -5
0 88 c0 566 467 1076 1090 1190 86 16 140 19 300 16 178 -3 205 -6 310 -33z
m-80 -268 c222 -54 444 -193 582 -364 58 -73 148 -223 148 -248 0 -4 -42 -31
-93 -59 -258 -145 -534 -238 -857 -290 -86 -14 -200 -18 -619 -21 l-514 -5 7
74 c33 361 257 676 598 838 95 45 231 86 333 99 113 16 295 5 415 -24z m1100
-931 l0 -407 -62 57 c-80 73 -165 129 -237 158 -52 21 -71 23 -271 23 -195 0
-222 -2 -285 -22 -95 -30 -185 -86 -260 -160 -77 -76 -125 -152 -161 -258 -25
-70 -28 -95 -28 -200 0 -131 13 -195 64 -295 37 -73 78 -123 259 -315 225
-239 231 -255 231 -596 l0 -228 -590 291 -590 292 0 294 c0 202 -4 308 -12
336 -16 55 -99 138 -154 154 -27 8 -119 12 -268 12 l-226 0 0 335 0 335 504 0
c278 0 563 5 633 11 494 41 967 222 1353 516 52 39 96 72 98 73 1 0 2 -183 2
-406z m-385 -319 c88 -23 142 -58 265 -173 l110 -104 0 -106 0 -106 -137 135
c-76 75 -154 145 -173 156 -72 43 -141 55 -298 51 -137 -3 -151 -5 -204 -31
-175 -86 -227 -290 -126 -492 12 -22 113 -134 234 -255 167 -169 218 -227 238
-270 l26 -55 0 -412 c0 -227 -2 -413 -5 -413 -3 0 -41 18 -85 40 l-80 40 0
273 c0 304 -5 340 -65 462 -27 57 -69 108 -215 264 -149 160 -186 206 -214
265 -62 129 -71 269 -26 400 55 160 197 292 358 330 81 20 321 20 397 1z
m-1714 -723 c28 -32 29 -35 29 -142 l0 -110 -340 0 -341 0 118 146 118 145
193 -3 194 -3 29 -33z"/>
</g>
</svg>
