<?xml version="1.0" standalone="no"?>
<!DOCTYPE svg PUBLIC "-//W3C//DTD SVG 20010904//EN"
 "http://www.w3.org/TR/2001/REC-SVG-20010904/DTD/svg10.dtd">
<svg version="1.0" xmlns="http://www.w3.org/2000/svg"
 width="512.000000pt" height="512.000000pt" viewBox="0 0 512.000000 512.000000"
 preserveAspectRatio="xMidYMid meet">

<g transform="translate(0.000000,512.000000) scale(0.100000,-0.100000)"
fill="#000000" stroke="none">
<path d="M1707 5110 c-171 -43 -306 -194 -325 -361 l-7 -62 -51 -17 c-70 -24
-120 -58 -177 -119 -109 -116 -140 -280 -83 -439 l15 -42 -40 -21 c-137 -69
-206 -252 -155 -407 l18 -53 -37 -41 c-64 -70 -80 -118 -80 -236 l0 -102 -41
-20 c-105 -52 -196 -186 -216 -318 -7 -41 -16 -69 -21 -65 -6 3 -23 6 -40 5
-39 -1 -77 -38 -77 -75 0 -16 59 -220 130 -452 71 -232 130 -427 130 -433 0
-5 -41 -20 -92 -33 -237 -58 -413 -208 -495 -419 -54 -137 -53 -129 -53 -713
0 -361 4 -555 11 -574 14 -38 57 -83 96 -99 27 -12 420 -14 2453 -14 2663 0
2457 -5 2518 64 l32 37 0 592 0 592 -29 82 c-62 179 -173 308 -337 391 -56 28
-101 43 -212 72 l-43 11 31 39 c125 158 112 388 -30 543 l-49 54 45 44 c90 88
137 235 115 360 -22 126 -108 250 -212 306 l-44 23 0 103 c0 117 -16 165 -81
236 -37 42 -37 43 -24 79 22 62 27 107 19 171 -15 108 -82 206 -171 252 -21
11 -38 21 -38 23 0 2 7 21 16 42 39 93 35 227 -10 328 -43 97 -146 190 -249
225 l-52 18 -7 62 c-24 217 -235 388 -453 368 -70 -7 -154 -36 -204 -70 l-34
-23 -50 33 c-128 86 -285 80 -407 -17 l-39 -31 -65 45 c-125 86 -259 87 -384
3 l-49 -33 -34 23 c-83 57 -239 86 -332 63z m172 -176 c38 -11 68 -30 109 -70
31 -30 67 -57 80 -61 34 -8 68 11 96 55 75 119 237 116 300 -6 9 -17 16 -37
16 -44 0 -7 5 -30 11 -51 8 -30 18 -42 44 -53 59 -24 108 7 120 76 15 87 62
144 134 162 72 18 136 -14 206 -106 11 -14 34 -29 51 -32 28 -5 39 0 92 49 71
66 106 85 166 93 104 15 214 -45 261 -139 23 -49 26 -64 23 -145 -4 -115 7
-130 104 -142 80 -10 136 -37 180 -90 41 -47 58 -98 58 -171 0 -63 -23 -117
-74 -177 -72 -86 -40 -148 84 -162 46 -5 79 -14 93 -26 80 -68 92 -172 28
-253 -16 -20 -31 -45 -34 -56 -10 -33 15 -73 67 -108 66 -43 88 -75 94 -137 4
-44 1 -57 -27 -101 -58 -94 -38 -151 60 -170 120 -24 208 -114 217 -224 6 -74
-3 -114 -38 -167 -47 -71 -97 -99 -223 -123 -98 -19 -84 -165 16 -165 46 0
113 -24 154 -56 107 -82 130 -241 49 -347 -28 -37 -88 -87 -105 -87 -3 0 -4
24 -3 54 3 39 -2 64 -16 92 -28 55 -51 72 -113 85 -47 9 -62 8 -117 -10 l-62
-21 -36 40 c-78 86 -161 78 -260 -25 l-60 -64 -83 21 c-76 19 -82 23 -76 42 4
12 17 56 28 100 18 69 19 86 9 145 -10 59 -9 67 6 75 9 5 43 35 74 66 46 47
60 70 77 125 26 85 26 126 0 211 -18 58 -30 77 -85 132 l-63 63 -3 466 -3 465
-26 22 c-17 14 -46 25 -77 29 -112 13 -191 81 -224 192 -31 108 -66 125 -168
85 -160 -63 -319 28 -350 201 -15 82 -23 95 -64 109 -61 20 -116 -29 -116
-103 0 -33 -42 -97 -79 -120 -58 -35 -123 -30 -198 17 -68 42 -96 43 -133 6
-17 -17 -20 -32 -18 -103 2 -70 0 -87 -19 -117 -51 -83 -153 -103 -251 -49
-56 31 -58 31 -94 16 -29 -12 -39 -23 -47 -54 -7 -24 -11 -220 -11 -551 l0
-513 -55 -50 c-32 -30 -65 -73 -82 -107 -24 -49 -28 -69 -28 -142 0 -73 4 -93
28 -141 25 -52 97 -131 140 -155 16 -9 16 -16 6 -64 -14 -64 -6 -141 21 -213
11 -28 20 -55 20 -59 0 -3 -97 -30 -216 -58 l-216 -52 -34 33 c-79 81 -312
354 -308 361 3 4 20 8 38 8 102 0 118 146 19 165 -135 26 -192 62 -236 145
-25 49 -28 63 -25 126 3 58 9 80 33 120 39 63 106 108 184 123 42 8 65 19 76
34 17 24 20 93 5 102 -6 4 -20 25 -31 47 -16 31 -20 54 -16 91 5 59 28 91 93
135 52 35 77 74 67 107 -3 11 -18 36 -33 55 -54 69 -58 157 -9 219 33 41 58
53 131 61 122 14 153 76 81 162 -51 61 -74 118 -74 187 -1 70 17 115 65 169
46 50 92 72 174 82 96 12 104 24 106 152 1 94 4 107 29 151 30 50 81 90 144
113 50 18 88 17 152 -2z m806 -772 c17 -11 60 -30 95 -42 54 -19 80 -21 157
-18 83 5 93 3 98 -13 4 -10 25 -45 49 -77 48 -65 124 -120 204 -148 l52 -19 0
-387 0 -388 -23 0 c-13 0 -46 -7 -73 -15 l-49 -15 -19 28 c-64 91 -190 176
-321 218 -158 50 -404 51 -563 3 -132 -41 -256 -124 -329 -221 -20 -27 -20
-27 -68 -12 -27 7 -59 14 -72 14 l-23 0 0 433 0 433 69 -4 c155 -9 289 77 336
215 l13 38 89 0 c73 1 97 5 143 26 30 14 66 35 80 47 l25 21 50 -48 c28 -26
64 -57 80 -69z m-20 -1012 c106 -12 194 -39 258 -80 47 -30 127 -106 127 -121
0 -4 -16 -1 -37 7 -131 55 -294 26 -403 -73 l-40 -35 -40 35 c-109 99 -272
128 -403 73 -21 -8 -37 -13 -37 -10 0 18 61 80 111 113 71 48 159 78 259 90
106 12 105 12 205 1z m-785 -272 c35 -18 52 -35 76 -82 36 -67 46 -76 93 -76
23 0 44 9 69 31 48 42 93 60 156 60 115 2 194 -74 211 -203 16 -118 154 -118
170 0 8 61 23 98 53 134 76 90 219 93 316 7 36 -31 78 -40 110 -22 10 6 32 37
50 69 39 74 95 108 168 101 94 -8 154 -84 146 -183 -6 -74 -41 -117 -119 -145
-92 -34 -107 -67 -68 -156 26 -60 29 -153 5 -208 -37 -87 -137 -155 -229 -155
-40 0 -54 -5 -78 -29 -32 -32 -34 -47 -19 -103 14 -50 -2 -108 -40 -152 -40
-45 -79 -60 -141 -54 -84 8 -141 67 -153 157 -16 123 -156 123 -172 0 -12 -90
-69 -149 -153 -157 -62 -6 -101 9 -141 54 -39 45 -54 102 -40 154 21 79 -17
130 -99 130 -102 0 -206 82 -237 186 -18 62 -13 107 22 196 17 44 17 50 2 81
-13 27 -28 38 -77 56 -83 30 -121 80 -121 158 0 78 26 121 95 157 42 22 93 20
145 -6z m-661 -1122 c276 -312 501 -572 501 -576 0 -4 -141 -43 -312 -86 -336
-84 -358 -93 -358 -152 0 -39 16 -59 353 -437 l295 -330 -265 -3 c-145 -1
-382 -1 -526 0 l-262 3 132 67 c73 37 137 76 143 87 20 38 12 79 -23 118 -211
239 -606 684 -625 705 -14 15 -23 30 -20 34 4 3 150 59 325 125 204 77 324
127 336 140 9 12 17 35 17 51 0 16 -56 213 -125 437 -69 224 -125 412 -125
417 0 12 -12 25 539 -600z m2630 204 c34 -94 74 -103 178 -40 37 22 73 40 80
40 16 0 13 -16 -37 -220 -46 -183 -72 -320 -101 -525 -19 -128 -23 -215 -28
-595 l-6 -445 -1000 -3 -1001 -2 -38 39 -39 40 144 72 c733 366 1348 912 1698
1506 71 120 118 193 125 193 2 0 13 -27 25 -60z m-1967 -40 c34 -16 68 -30 74
-30 7 0 17 -28 23 -61 14 -80 43 -138 94 -189 64 -65 128 -93 222 -98 96 -5
168 18 233 74 l42 36 42 -36 c65 -56 137 -79 233 -74 167 9 286 117 316 287 6
33 16 61 23 61 6 0 39 13 74 30 l63 30 110 -26 c60 -14 109 -29 109 -33 0 -9
-126 -194 -174 -256 -380 -495 -878 -888 -1532 -1209 l-92 -45 -226 254 -226
254 38 10 c20 6 162 41 315 80 305 76 327 86 327 148 0 37 15 18 -362 446
-126 142 -228 261 -228 265 0 5 393 107 432 111 3 1 35 -12 70 -29z m2698
-276 c166 -47 298 -172 353 -334 21 -63 22 -79 25 -602 l3 -538 -426 0 -425 0
0 379 c0 496 19 696 101 1047 l30 131 142 -34 c78 -18 167 -40 197 -49z
m-3855 -24 c10 -33 16 -62 14 -64 -11 -9 -500 -188 -504 -184 -9 8 59 102 108
149 62 60 143 103 253 133 49 14 94 25 100 25 6 1 19 -26 29 -59z m-285 -915
c112 -126 219 -247 238 -267 l35 -37 -232 -115 c-163 -82 -241 -116 -266 -116
l-35 0 0 412 0 413 28 -30 c16 -17 120 -133 232 -260z"/>
<path d="M2173 3816 c-28 -24 -28 -25 -28 -146 0 -121 0 -122 28 -146 37 -31
81 -31 112 1 24 23 25 30 25 139 0 63 -3 122 -6 131 -8 19 -55 45 -83 45 -11
0 -33 -11 -48 -24z"/>
<path d="M2875 3828 c-40 -22 -45 -38 -45 -160 0 -113 1 -120 25 -143 31 -32
75 -32 111 -2 25 22 28 31 32 110 6 107 -3 153 -33 183 -26 26 -58 30 -90 12z"/>
<path d="M3745 1532 c-34 -7 -43 -20 -114 -166 -168 -345 -412 -629 -718 -835
-67 -44 -83 -65 -83 -105 0 -38 10 -55 41 -71 45 -24 60 -19 155 47 350 242
615 560 785 942 52 118 48 159 -21 184 -14 4 -34 6 -45 4z"/>
</g>
</svg>
